<svg width="361" height="84" viewBox="0 0 361 84" fill="none" xmlns="http://www.w3.org/2000/svg">
<g clip-path="url(#clip0)">
<path d="M128.859 42.4686C130.179 42.7285 131.039 44.0076 130.78 45.3259L129.817 50.2295C129.551 51.5869 128.205 52.4574 126.846 52.1239C125.573 51.8123 124.801 50.5113 125.053 49.2259L125.08 49.0944L118.733 49.384C118.542 49.3918 118.376 49.5187 118.316 49.7018C117.696 51.5743 116.88 53.3592 115.893 55.0281C115.792 55.1972 115.808 55.4117 115.935 55.562L118.742 58.8968C119.299 58.3661 120.027 58.0905 120.763 58.0905C121.383 58.0905 122.009 58.2862 122.54 58.6933C123.826 59.6765 124.07 61.5161 123.087 62.8031L122.273 63.8662C121.317 65.1155 119.537 65.4506 118.241 64.5566C117.125 63.7879 116.721 62.4054 117.125 61.2046L113.081 59.4276C112.897 59.3477 112.686 59.3947 112.553 59.5419C110.681 61.5976 108.501 63.3667 106.087 64.7789C105.921 64.876 105.832 65.0639 105.863 65.2533L106.898 71.566L107.794 71.2074C109.079 70.6939 110.541 71.3515 111 72.6744C111.429 73.9129 110.756 75.2671 109.539 75.7525L104.963 77.5843C103.679 78.0978 102.217 77.4402 101.758 76.1173C101.329 74.8789 102.002 73.5246 103.219 73.0377L103.342 72.9891L99.6506 67.8163C99.5395 67.6597 99.3438 67.5908 99.1575 67.6394C96.9515 68.2108 94.6375 68.5177 92.2514 68.5177C90.3633 68.5177 88.5221 68.3251 86.7419 67.9619C86.5541 67.9243 86.3615 68.0041 86.2582 68.1654L82.5648 73.9598L82.6948 74.0068C83.8972 74.4452 84.6424 75.5803 84.6424 76.7889C84.6424 77.1271 84.5845 77.47 84.4624 77.805C84.4624 79.5382 83.13 80.4713 81.5018 79.8764L76.963 78.2215C75.4443 77.6688 74.6521 76.0014 75.1766 74.4781C75.7152 72.9077 77.5047 72.1155 79.0641 72.6838L79.169 72.7214L79.9205 65.9312C79.9424 65.7402 79.8422 65.5586 79.6715 65.4694C76.797 63.9852 74.2184 62.0078 72.0469 59.6483C71.9154 59.5059 71.7103 59.4589 71.5318 59.5325L65.9926 61.8042C66.6188 62.9753 66.2665 64.4595 65.1236 65.211C63.9306 65.9954 62.3196 65.6306 61.5054 64.4595L60.087 62.4164C59.2932 61.275 59.4779 59.6843 60.5708 58.8232C61.7356 57.9058 63.3967 58.1438 64.2688 59.2976L68.1704 54.8888C68.3003 54.7416 68.3222 54.5287 68.2267 54.358C66.6251 51.471 65.5291 48.2646 65.0579 44.8593C65.0313 44.6683 64.8919 44.5133 64.7056 44.471L58.4712 43.0307L58.465 43.7618C58.4587 44.493 58.1581 45.1552 57.6743 45.6327C57.1921 46.1118 56.5283 46.4062 55.7956 46.4062C54.3395 46.4062 53.1606 45.2179 53.1747 43.7618L53.2154 39.2324C53.2279 37.7513 54.4522 36.5035 55.9318 36.5427C57.3675 36.5802 58.5135 37.7607 58.5057 39.2011L64.6946 37.7498C64.8825 37.7059 65.0219 37.5509 65.0469 37.3599C65.5323 33.759 66.7174 30.3787 68.46 27.3602C68.5571 27.1911 68.5398 26.9797 68.413 26.8294L65.4618 23.3631L65.205 23.7013C64.4097 24.7534 62.891 24.9366 61.8655 24.0833C60.9042 23.2817 60.7868 21.8444 61.5415 20.8471L63.5079 18.2482C63.9651 17.6454 64.6586 17.3276 65.3616 17.3276C65.8485 17.3276 66.3401 17.481 66.7597 17.7973C67.732 18.5316 67.9606 19.8811 67.3187 20.8925L71.4457 22.6774C71.6273 22.7557 71.8371 22.7087 71.9717 22.5631C73.9194 20.4275 76.2005 18.602 78.7337 17.1663C78.8997 17.0708 78.992 16.8845 78.9639 16.6951L78.0135 10.3683L77.1117 10.7159C75.8216 11.2122 74.3672 10.5343 73.9272 9.20662C73.5139 7.96194 74.2059 6.61706 75.4287 6.14737L80.0285 4.37819C81.3201 3.88189 82.7731 4.55824 83.213 5.88747C83.6263 7.13059 82.9359 8.47547 81.7116 8.94673L81.5879 8.99369L85.2076 14.2135C85.3172 14.3717 85.5114 14.4437 85.6977 14.3983C87.7988 13.8832 89.9922 13.6108 92.2514 13.6108H92.2546C92.4518 13.6108 92.6287 13.4902 92.6945 13.3039L93.8938 9.9503C92.5051 9.51505 91.5798 8.14512 91.7567 6.6515C91.9587 4.95905 93.5791 3.75664 95.2715 3.96956L96.9186 4.17623C98.597 4.38759 99.8557 5.8906 99.6725 7.57366C99.5285 8.8841 98.586 9.9049 97.3898 10.218L97.8063 13.8534C97.8282 14.0491 97.9738 14.2088 98.168 14.2511C100.952 14.8633 103.577 15.8982 105.973 17.2837C106.14 17.3793 106.347 17.3652 106.496 17.243L111.463 13.2115L110.709 12.6119C109.624 11.7508 109.47 10.1554 110.391 9.10172C111.252 8.11381 112.763 8.02613 113.788 8.84183L117.648 11.9058C118.733 12.7653 118.886 14.3623 117.965 15.4159C117.104 16.4023 115.594 16.49 114.568 15.6758L114.463 15.5929L111.803 21.3685C111.722 21.5423 111.759 21.7474 111.894 21.8852C113.766 23.8031 115.36 25.995 116.61 28.3935C116.7 28.5673 116.89 28.6659 117.084 28.6393L120.856 28.1117C120.301 26.5648 121.123 24.8505 122.705 24.3322C124.212 23.8375 125.837 24.6751 126.392 26.1625L127.261 28.4921C127.809 29.9654 127.151 31.6516 125.711 32.2779C124.33 32.8775 122.772 32.3358 122.03 31.1115L118.9 33.2345C118.736 33.3456 118.662 33.5492 118.715 33.7402C119.359 36.073 119.703 38.5279 119.703 41.0642C119.703 41.4885 119.694 41.9097 119.674 42.3277C119.666 42.5203 119.774 42.6972 119.949 42.7739L125.817 45.3368L126.002 44.3896C126.262 43.0698 127.541 42.2103 128.859 42.4686V42.4686Z" fill="#F79595"/>
<path d="M104.172 30.7889C106.313 30.7889 108.048 29.338 108.048 27.5482C108.048 25.7584 106.313 24.3075 104.172 24.3075C102.032 24.3075 100.296 25.7584 100.296 27.5482C100.296 29.338 102.032 30.7889 104.172 30.7889Z" fill="#EE6161"/>
<path d="M90.1852 51.9659C92.525 51.9659 94.4217 50.0692 94.4217 47.7294C94.4217 45.3897 92.525 43.493 90.1852 43.493C87.8455 43.493 85.9488 45.3897 85.9488 47.7294C85.9488 50.0692 87.8455 51.9659 90.1852 51.9659Z" fill="#EE6161"/>
<path d="M106.696 48.5556C108.371 48.5556 109.729 47.1976 109.729 45.5224C109.729 43.8471 108.371 42.4891 106.696 42.4891C105.021 42.4891 103.663 43.8471 103.663 45.5224C103.663 47.1976 105.021 48.5556 106.696 48.5556Z" fill="#F9B1B1"/>
<path d="M95.4937 63.2742C97.1224 63.2742 98.4428 61.9539 98.4428 60.3252C98.4428 58.6965 97.1224 57.3761 95.4937 57.3761C93.865 57.3761 92.5447 58.6965 92.5447 60.3252C92.5447 61.9539 93.865 63.2742 95.4937 63.2742Z" fill="#F9B1B1"/>
<path d="M75.5562 39.7496C75.5562 29.1959 80.5908 19.816 88.386 13.8808C87.4759 14.0092 86.5774 14.1827 85.6978 14.3984C85.5115 14.4438 85.3173 14.3718 85.2077 14.2137L81.588 8.99386L81.7117 8.94689C82.936 8.47564 83.6264 7.13075 83.2131 5.88764C82.7732 4.55841 81.3203 3.88206 80.0286 4.37836L75.4288 6.14753C74.206 6.61722 73.514 7.96211 73.9273 9.20679C74.3673 10.5344 75.8217 11.2124 77.1118 10.7161L78.0136 10.3685L78.964 16.6952C78.9922 16.8847 78.8998 17.071 78.7338 17.1665C76.2006 18.6022 73.9195 20.4277 71.9718 22.5632C71.8372 22.7088 71.6274 22.7558 71.4458 22.6775L67.3188 20.8927C67.9607 19.8813 67.7321 18.5317 66.7598 17.7974C66.3402 17.4812 65.8486 17.3278 65.3617 17.3278C64.6588 17.3278 63.9652 17.6456 63.508 18.2483L61.5416 20.8473C60.7869 21.8446 60.9044 23.2819 61.8657 24.0835C62.8912 24.9367 64.4098 24.7536 65.2052 23.7015L65.4619 23.3633L68.4132 26.8296C68.54 26.9799 68.5572 27.1913 68.4601 27.3604C66.7176 30.3789 65.5324 33.7591 65.047 37.3601C65.022 37.5511 64.8826 37.7061 64.6948 37.7499L58.5058 39.2013C58.5136 37.7609 57.3676 36.5804 55.9319 36.5428C54.4524 36.5037 53.228 37.7515 53.2155 39.2326L53.1748 43.762C53.1607 45.218 54.3396 46.4063 55.7957 46.4063C56.5284 46.4063 57.1922 46.112 57.6744 45.6329C58.1582 45.1554 58.4588 44.4931 58.4651 43.762L58.4714 43.0308L64.7057 44.4712C64.892 44.5135 65.0314 44.6685 65.058 44.8595C65.5292 48.2647 66.6252 51.4712 68.2268 54.3582C68.3223 54.5289 68.3004 54.7418 68.1705 54.889L64.2689 59.2978C63.3969 58.1439 61.7357 57.9059 60.5709 58.8234C59.4781 59.6845 59.2933 61.2752 60.0871 62.4165L61.5056 64.4597C62.3197 65.6308 63.9307 65.9956 65.1237 65.2112C66.2667 64.4597 66.6189 62.9755 65.9927 61.8044L71.5319 59.5326C71.7104 59.4591 71.9155 59.506 72.047 59.6485C74.2185 62.0079 76.7971 63.9853 79.6716 65.4695C79.8423 65.5588 79.9425 65.7404 79.9206 65.9314L79.1691 72.7216L79.0642 72.684C77.5048 72.1157 75.7153 72.9079 75.1767 74.4782C74.6522 76.0016 75.4444 77.669 76.9631 78.2217L81.5019 79.8765C83.1301 80.4715 84.4625 79.5384 84.4625 77.8052C84.5846 77.4701 84.6425 77.1273 84.6425 76.7891C84.6425 75.5804 83.8973 74.4453 82.6949 74.007L82.5649 73.96L86.2583 68.1656C86.3616 68.0043 86.5542 67.9245 86.7421 67.962C88.5222 68.3253 90.3634 68.5178 92.2515 68.5178C92.4737 68.5178 92.6995 68.515 92.9204 68.5098C82.5984 63.0669 75.5562 52.2296 75.5562 39.7496V39.7496Z" fill="#F37C7C"/>
<path d="M77.0408 56.3429C78.7374 56.3429 80.1129 54.9675 80.1129 53.2709C80.1129 51.5742 78.7374 50.1988 77.0408 50.1988C75.3441 50.1988 73.9687 51.5742 73.9687 53.2709C73.9687 54.9675 75.3441 56.3429 77.0408 56.3429Z" fill="#EE6161"/>
<path d="M87.3312 36.0832C90.8373 33.3185 91.8078 28.7035 89.4989 25.7754C87.1899 22.8472 82.4759 22.7147 78.9697 25.4794C75.4636 28.2441 74.4931 32.8591 76.8021 35.7872C79.111 38.7154 83.8251 38.8479 87.3312 36.0832Z" fill="#EE6161"/>
<path d="M129.086 41.3169C128.14 41.1315 127.179 41.3254 126.379 41.8628C125.716 42.3081 125.23 42.9452 124.977 43.6882L120.866 41.8929C120.874 41.6116 120.878 41.3343 120.878 41.0642C120.878 38.647 120.576 36.2469 119.979 33.9218L121.823 32.6708C122.992 33.6946 124.69 34.0007 126.178 33.3546C128.179 32.4848 129.138 30.1688 128.36 28.0818L127.492 25.752C126.705 23.6395 124.441 22.5265 122.338 23.2166C121.274 23.566 120.417 24.3116 119.927 25.3158C119.648 25.8869 119.507 26.4996 119.507 27.1152L117.414 27.4073C117.128 26.8819 116.815 26.3494 116.48 25.819C116.134 25.2704 115.409 25.1061 114.861 25.4518C114.312 25.7977 114.147 26.5227 114.493 27.0713C114.888 27.6974 115.25 28.3248 115.568 28.9363C115.888 29.5494 116.563 29.8972 117.245 29.802L121.018 29.2753C121.368 29.2264 121.678 29.0224 121.861 28.72C122.043 28.4175 122.08 28.0486 121.961 27.7159C121.799 27.2644 121.826 26.7783 122.037 26.3471C122.247 25.9172 122.614 25.5979 123.071 25.4479C123.956 25.1573 124.952 25.6616 125.291 26.5722L126.159 28.902C126.495 29.8037 126.084 30.835 125.242 31.201C124.436 31.5511 123.487 31.251 123.033 30.5031C122.866 30.228 122.594 30.0334 122.28 29.9648C121.965 29.8961 121.636 29.9598 121.37 30.1403L118.241 32.2628C117.66 32.6564 117.396 33.3762 117.583 34.0538C118.211 36.3282 118.53 38.687 118.53 41.0644C118.53 41.4539 118.52 41.861 118.501 42.2745C118.47 42.948 118.863 43.5815 119.48 43.8506L125.346 46.4126C125.673 46.5552 126.046 46.5419 126.361 46.3767C126.677 46.2116 126.9 45.9122 126.969 45.5628L127.155 44.6156C127.219 44.2854 127.409 44.0001 127.688 43.8124C127.968 43.6247 128.303 43.5569 128.634 43.6218C129.315 43.7556 129.761 44.4191 129.628 45.1007L128.665 50.0039C128.598 50.3452 128.4 50.6362 128.107 50.8235C127.814 51.0106 127.465 51.0672 127.126 50.9843C126.484 50.8266 126.071 50.1391 126.206 49.4515L126.232 49.3204C126.301 48.9668 126.204 48.6009 125.969 48.328C125.733 48.0548 125.383 47.9039 125.026 47.9216L118.68 48.211C118.008 48.2416 117.414 48.6922 117.201 49.3328C116.613 51.1079 115.833 52.8231 114.882 54.4304C114.527 55.0288 114.59 55.7875 115.036 56.3182L117.844 59.6535C118.052 59.9013 118.354 60.0518 118.677 60.0698C119 60.0873 119.317 59.9712 119.551 59.7481C120.181 59.1495 121.137 59.0983 121.826 59.6255C122.199 59.9107 122.438 60.3241 122.5 60.7894C122.562 61.2547 122.439 61.7162 122.154 62.089L121.341 63.1522C120.756 63.9158 119.665 64.1121 118.907 63.5903C118.264 63.1467 117.988 62.3201 118.238 61.58C118.432 61.0037 118.155 60.3743 117.598 60.1298L113.553 58.3534C112.91 58.0705 112.159 58.2303 111.685 58.7512C109.881 60.7314 107.799 62.4186 105.495 63.7658C104.913 64.1055 104.595 64.7797 104.704 65.4431L105.739 71.7563C105.797 72.1077 106.011 72.4139 106.321 72.589C106.631 72.764 107.004 72.7887 107.334 72.6566L108.23 72.2981C108.553 72.1689 108.906 72.1773 109.222 72.322C109.539 72.4664 109.776 72.728 109.89 73.0586C110.107 73.6832 109.753 74.4032 109.103 74.6634L104.527 76.4936C104.204 76.623 103.852 76.6144 103.536 76.4699C103.219 76.3255 102.982 76.0639 102.868 75.7334C102.651 75.1088 103.004 74.3888 103.655 74.1286L103.778 74.0791C104.113 73.9453 104.368 73.6652 104.469 73.3193C104.57 72.9735 104.508 72.6002 104.298 72.3068L100.607 67.1352C100.217 66.5877 99.5154 66.3336 98.8634 66.5027C96.7115 67.0605 94.4868 67.3434 92.2511 67.3434C90.4809 67.3434 88.7062 67.1646 86.9768 66.8121C86.3166 66.6776 85.6305 66.9677 85.2684 67.5346L81.5739 73.3289C81.3825 73.629 81.3377 73.9999 81.4521 74.3371C81.5663 74.6744 81.8274 74.9415 82.162 75.0634L82.2927 75.1112C82.7413 75.2746 83.0993 75.6031 83.3008 76.036C83.5023 76.4688 83.5232 76.9543 83.3597 77.4028C83.3126 77.5317 83.2886 77.6679 83.2886 77.805C83.2886 78.2492 83.1576 78.5857 82.9196 78.7521C82.6818 78.9187 82.3211 78.9268 81.9035 78.7743L77.365 77.1194C76.4562 76.7881 75.9724 75.7747 76.2863 74.8604C76.4362 74.4245 76.7587 74.07 77.1945 73.8621C77.655 73.6425 78.1903 73.6152 78.6626 73.7874L78.7666 73.8253C79.1049 73.949 79.4816 73.91 79.7879 73.72C80.0943 73.5299 80.2962 73.2097 80.3358 72.8515L81.088 66.0609C81.162 65.3927 80.8094 64.7362 80.2107 64.4271C77.4654 63.0093 75.0091 61.134 72.9106 58.8539C72.4488 58.3517 71.7154 58.1878 71.0857 58.4462L65.5473 60.7175C65.24 60.8435 65.0004 61.0937 64.888 61.4062C64.7754 61.7187 64.8007 62.0643 64.9571 62.3572C65.3085 63.0148 65.1027 63.8203 64.4783 64.2308C63.8347 64.6543 62.9335 64.4562 62.47 63.7893L61.0514 61.7472C60.5964 61.0923 60.7048 60.2132 61.298 59.7457C61.6047 59.504 61.9853 59.3981 62.3689 59.4475C62.7555 59.4972 63.0974 59.6955 63.3321 60.0058C63.5444 60.2866 63.8716 60.4575 64.2236 60.4711C64.5743 60.4845 64.9148 60.3396 65.1481 60.0758L69.049 55.6666C69.5068 55.1492 69.5888 54.3945 69.253 53.788C68.8336 53.0315 68.4434 52.2349 68.0937 51.4201C67.8375 50.8244 67.1472 50.5487 66.5512 50.8047C65.9553 51.0607 65.6798 51.7511 65.9356 52.347C66.2492 53.0767 66.5925 53.7938 66.9592 54.4844L64.1652 57.6428C63.7158 57.3672 63.2089 57.1875 62.6689 57.118C61.6533 56.9875 60.6509 57.2656 59.8445 57.9009C58.2774 59.1359 57.9605 61.4139 59.123 63.0869L60.5416 65.1288C61.7254 66.8329 64.0701 67.3099 65.769 66.1927C67.0395 65.3571 67.6518 63.8997 67.4381 62.4799L71.5213 60.8053C73.6183 63.0073 76.0294 64.8477 78.7004 66.2851L78.1418 71.3291C77.4713 71.31 76.7969 71.4493 76.1835 71.7419C75.1739 72.2235 74.4216 73.0597 74.0653 74.097C73.3385 76.2132 74.458 78.5587 76.5606 79.3254L81.0991 80.9803C81.5545 81.1464 82.0122 81.2284 82.4529 81.2284C83.1167 81.2284 83.7425 81.0421 84.2662 80.6758C85.0879 80.1007 85.5792 79.1372 85.6324 78.0104C85.9369 77.0285 85.8671 75.9828 85.4299 75.0442C85.1499 74.4423 84.7389 73.9279 84.2304 73.5308L86.9876 69.2062C90.9471 69.9429 95.0758 69.8345 98.9777 68.8942L101.657 72.6484C100.603 73.6029 100.164 75.1048 100.648 76.5019C100.975 77.4449 101.654 78.1921 102.56 78.6059C103.453 79.0137 104.488 79.0384 105.4 78.674L109.975 76.8437C111.803 76.1124 112.741 74.112 112.109 72.2898C111.783 71.3468 111.104 70.5995 110.198 70.1857C109.455 69.8463 108.613 69.7719 107.826 69.967L107.1 65.5426C109.298 64.2067 111.304 62.5831 113.073 60.7076L115.806 61.9077C115.729 63.3113 116.38 64.7008 117.575 65.5242C119.377 66.7659 121.85 66.3507 123.206 64.5795L124.019 63.5162C124.686 62.6453 124.973 61.5669 124.829 60.4797C124.684 59.3925 124.125 58.4267 123.254 57.7602C121.983 56.7878 120.324 56.6569 118.958 57.3299L117.156 55.1894C117.998 53.7067 118.708 52.145 119.273 50.5348L123.878 50.3246C124.107 51.7286 125.13 52.9122 126.566 53.2648C127.535 53.5029 128.531 53.3385 129.37 52.8027C130.198 52.2743 130.781 51.419 130.97 50.4557L131.932 45.5526C132.315 43.6001 131.038 41.7 129.086 41.3169V41.3169Z" fill="black"/>
<path d="M59.5655 44.4887L63.9668 45.5053C64.0626 46.1173 64.1811 46.7387 64.3205 47.3585C64.4431 47.9046 64.9278 48.2758 65.4651 48.2757C65.5503 48.2757 65.6369 48.2663 65.7234 48.2469C66.3561 48.1047 66.7539 47.4767 66.6118 46.8439C66.45 46.1231 66.3187 45.4012 66.2216 44.6982C66.1291 44.0292 65.6259 43.4778 64.9697 43.3264L58.7362 41.8868C58.3897 41.8068 58.0246 41.8883 57.7451 42.1086C57.4655 42.3291 57.3009 42.6644 57.2978 43.0205L57.2914 43.7502C57.284 44.5671 56.6135 45.2319 55.7964 45.2319C55.4073 45.2319 55.042 45.0797 54.7682 44.8034C54.4942 44.5269 54.3453 44.1606 54.3488 43.7715L54.3895 39.243C54.3931 38.8278 54.5695 38.4216 54.8734 38.1285C55.159 37.8529 55.5199 37.7051 55.9011 37.7164C56.6942 37.7374 57.3362 38.4006 57.3318 39.1948C57.3297 39.5545 57.4927 39.8953 57.7741 40.1195C58.0554 40.3438 58.4243 40.4268 58.774 40.3445L64.9638 38.8931C65.6195 38.7394 66.1205 38.1866 66.2108 37.5174C66.6675 34.1305 67.7664 30.9107 69.4769 27.9473C69.822 27.3489 69.754 26.594 69.307 26.0685L66.3553 22.6019C66.1246 22.331 65.7853 22.1789 65.4274 22.1893C65.0715 22.1997 64.7394 22.3708 64.5246 22.6547L64.2688 22.9928C64.0776 23.2455 63.799 23.4044 63.4839 23.4406C63.17 23.4766 62.8614 23.3842 62.6167 23.1804C62.1543 22.7951 62.0919 22.0664 62.4779 21.5562L64.444 18.9566C64.8257 18.452 65.5468 18.3518 66.0514 18.7337C66.5239 19.091 66.645 19.7621 66.3271 20.2617C66.1427 20.5518 66.0946 20.908 66.1956 21.2367C66.2966 21.5653 66.5365 21.8332 66.8518 21.9695L70.9793 23.7547C71.6192 24.0316 72.3661 23.871 72.838 23.3543C74.7171 21.296 76.8952 19.5575 79.3125 18.1873C79.8981 17.855 80.2245 17.1856 80.1249 16.5208L79.1741 10.1944C79.1212 9.84226 78.9113 9.53321 78.6036 9.3541C78.2957 9.17483 77.923 9.14509 77.5913 9.27284L76.6906 9.61932C76.3659 9.74394 76.0139 9.73095 75.6994 9.58221C75.385 9.43363 75.1514 9.16888 75.0413 8.83681C74.8333 8.2093 75.196 7.49428 75.8503 7.24268L80.4495 5.47367C80.7742 5.34873 81.1262 5.36204 81.4407 5.51077C81.7551 5.65935 81.9888 5.9241 82.0989 6.25617C82.3068 6.88368 81.9441 7.59871 81.2898 7.85046L81.1655 7.89837C80.8292 8.02785 80.5708 8.3045 80.4648 8.64894C80.359 8.99338 80.4169 9.36741 80.6225 9.66347L84.2432 14.883C84.6262 15.435 85.323 15.6985 85.9773 15.5384C88.0179 15.0386 90.1287 14.7851 92.2536 14.7851H92.2543C92.947 14.7851 93.5681 14.3485 93.7997 13.6992L94.9985 10.3447C95.1061 10.0438 95.0863 9.71185 94.9437 9.42596C94.8012 9.13992 94.5484 8.92417 94.2432 8.82883C93.3702 8.55578 92.8149 7.69844 92.9226 6.79037C92.9801 6.30721 93.2339 5.86743 93.6372 5.55195C94.0607 5.22066 94.6026 5.06832 95.1247 5.13424L96.7711 5.34153C97.8383 5.47586 98.6156 6.41978 98.504 7.44559C98.4177 8.23749 97.8633 8.87971 97.0916 9.08168C96.5264 9.22963 96.1558 9.77071 96.2224 10.3513L96.639 13.9863C96.7184 14.6801 97.2309 15.2472 97.915 15.3976C100.538 15.9738 103.051 16.9503 105.384 18.2995C105.969 18.6377 106.712 18.5795 107.235 18.1552L112.203 14.1229C112.479 13.8985 112.639 13.5608 112.637 13.2048C112.635 12.8489 112.472 12.5129 112.193 12.2915L111.437 11.6914C111.165 11.4752 110.997 11.1652 110.966 10.8184C110.934 10.4723 111.043 10.1366 111.274 9.87311C111.709 9.37508 112.509 9.32466 113.058 9.76038L116.917 12.8245C117.19 13.0407 117.357 13.3507 117.389 13.6973C117.42 14.0435 117.311 14.3792 117.081 14.6428C116.646 15.1405 115.845 15.1909 115.297 14.7557L115.193 14.673C114.91 14.4487 114.54 14.3666 114.19 14.4502C113.84 14.5339 113.547 14.7739 113.396 15.1012L110.735 20.8772C110.454 21.4881 110.581 22.2227 111.052 22.7051C111.219 22.876 111.384 23.053 111.58 23.266C112.019 23.7432 112.762 23.7739 113.239 23.3346C113.716 22.8953 113.747 22.1526 113.308 21.6753C113.225 21.585 113.147 21.5005 113.071 21.4195L115.004 17.2246C116.356 17.6667 117.877 17.3017 118.849 16.1881C119.506 15.4364 119.818 14.4762 119.727 13.4844C119.638 12.5065 119.146 11.5958 118.377 10.9855L114.518 7.92154C112.976 6.69737 110.774 6.8757 109.505 8.32845C108.848 9.08011 108.537 10.0403 108.627 11.0321C108.701 11.846 109.054 12.6134 109.614 13.1998L106.134 16.025C103.861 14.7617 101.437 13.819 98.9156 13.2176L98.6576 10.9651C99.851 10.3051 100.688 9.08951 100.84 7.7C101.089 5.40822 99.3957 3.3051 97.0653 3.01155L95.4189 2.80426C94.2813 2.66116 93.1044 2.98838 92.1915 3.70215C91.2915 4.4059 90.7232 5.40431 90.5915 6.51356C90.3999 8.12617 91.1439 9.66707 92.436 10.5385L91.7561 12.4409C89.7774 12.4747 87.8108 12.711 85.8962 13.1448L83.2684 9.3566C84.3354 8.4166 84.7937 6.92063 84.3285 5.51719C84.0143 4.56983 83.3455 3.81362 82.4452 3.38777C81.5575 2.96802 80.5232 2.92935 79.6069 3.28178L75.0078 5.05063C73.1699 5.75736 72.2056 7.74509 72.8126 9.57579C73.1267 10.5232 73.7954 11.2794 74.6958 11.7052C75.4345 12.0545 76.2744 12.1401 77.0644 11.9556L77.7308 16.3891C75.4122 17.7561 73.303 19.4385 71.4496 21.399L68.7985 20.2525C69.0139 18.9973 68.5344 17.6667 67.4685 16.8604C66.7237 16.2971 65.8045 16.0571 64.8792 16.1859C63.9543 16.3141 63.1347 16.7951 62.5715 17.5399L60.6052 20.1395C59.4546 21.6603 59.678 23.7886 61.1137 24.9846C61.8566 25.6035 62.7933 25.8839 63.7521 25.7737C64.3566 25.7044 64.9309 25.4759 65.4166 25.1216L67.1953 27.211C65.5517 30.1758 64.4625 33.3697 63.953 36.718L59.4094 37.7834C58.8578 36.4069 57.5233 35.4099 55.9633 35.3687C54.9476 35.3432 53.9852 35.7219 53.2425 36.4385C52.4885 37.1662 52.0504 38.1806 52.0409 39.2218L52.0002 43.7505C51.9911 44.7708 52.3817 45.732 53.0999 46.4567C53.818 47.1814 54.7757 47.5805 55.7962 47.5805C57.6515 47.5807 59.2132 46.2475 59.5655 44.4887V44.4887Z" fill="black"/>
<path d="M86.4381 38.0789C87.0109 37.7753 87.2293 37.0645 86.9256 36.4915C86.622 35.9187 85.9115 35.6999 85.338 36.0039C82.5319 37.4913 79.3335 37.0981 77.7339 35.0684C76.8363 33.9299 76.5276 32.4211 76.8645 30.8202C77.2177 29.1416 78.2279 27.5742 79.7088 26.407C81.1894 25.2397 82.9495 24.6244 84.664 24.672C86.2993 24.7182 87.6942 25.3707 88.5919 26.5094C89.9396 28.2193 89.9225 30.7714 88.5482 33.0114C88.2091 33.5642 88.3821 34.2872 88.9351 34.6263C89.4878 34.9654 90.2108 34.7923 90.5499 34.2396C92.4446 31.1515 92.3998 27.5467 90.4361 25.0556C89.1001 23.3606 87.0737 22.3907 84.7304 22.3246C82.4659 22.2589 80.1669 23.0555 78.2549 24.5627C76.3427 26.0699 75.0329 28.1206 74.5663 30.3366C74.0834 32.6306 74.5535 34.8275 75.8894 36.5223C77.2961 38.3068 79.4988 39.2456 81.8686 39.2454C83.3783 39.2454 84.9557 38.8646 86.4381 38.0789V38.0789Z" fill="black"/>
<path d="M109.222 27.5482C109.222 25.1138 106.957 23.1333 104.172 23.1333C101.388 23.1333 99.1221 25.1138 99.1221 27.5482C99.1221 29.9826 101.388 31.9631 104.172 31.9631C106.957 31.9631 109.222 29.9826 109.222 27.5482ZM101.471 27.5482C101.471 26.4087 102.683 25.4817 104.172 25.4817C105.662 25.4817 106.874 26.4087 106.874 27.5482C106.874 28.6877 105.662 29.6147 104.172 29.6147C102.683 29.6147 101.471 28.6877 101.471 27.5482Z" fill="black"/>
<path d="M95.5959 47.7295C95.5959 44.746 93.1687 42.3188 90.1852 42.3188C87.2016 42.3188 84.7744 44.746 84.7744 47.7295C84.7744 50.7129 87.2016 53.1401 90.1852 53.1401C93.1687 53.1401 95.5959 50.7129 95.5959 47.7295ZM87.123 47.7295C87.123 46.0409 88.4967 44.6672 90.1854 44.6672C91.8738 44.6672 93.2476 46.0409 93.2476 47.7295C93.2476 49.418 91.8739 50.7917 90.1854 50.7917C88.4967 50.7917 87.123 49.418 87.123 47.7295V47.7295Z" fill="black"/>
<path d="M110.904 45.5224C110.904 43.2022 109.016 41.3147 106.696 41.3147C104.376 41.3147 102.489 43.2022 102.489 45.5224C102.489 47.8425 104.376 49.73 106.696 49.73C109.016 49.7299 110.904 47.8425 110.904 45.5224ZM104.837 45.5224C104.837 44.4972 105.671 43.6632 106.696 43.6632C107.721 43.6632 108.555 44.4972 108.555 45.5224C108.555 46.5475 107.721 47.3816 106.696 47.3816C105.671 47.3814 104.837 46.5475 104.837 45.5224Z" fill="black"/>
<path d="M95.4937 64.4484C97.7672 64.4484 99.617 62.5987 99.617 60.3251C99.617 58.0517 97.7674 56.2019 95.4937 56.2019C93.2201 56.2019 91.3703 58.0515 91.3703 60.3251C91.3703 62.5987 93.22 64.4484 95.4937 64.4484ZM95.4937 58.5503C96.4724 58.5503 97.2685 59.3465 97.2685 60.3251C97.2685 61.3038 96.4724 62.0999 95.4937 62.0999C94.515 62.0999 93.7188 61.3038 93.7188 60.3251C93.7188 59.3465 94.515 58.5503 95.4937 58.5503Z" fill="black"/>
<path d="M77.0408 57.5172C79.3822 57.5172 81.2871 55.6123 81.2871 53.2709C81.2871 50.9295 79.3822 49.0245 77.0408 49.0245C74.6994 49.0245 72.7945 50.9295 72.7945 53.2709C72.7945 55.6123 74.6994 57.5172 77.0408 57.5172ZM77.0408 51.373C78.0874 51.373 78.9387 52.2244 78.9387 53.2709C78.9387 54.3173 78.0873 55.1687 77.0408 55.1687C75.9943 55.1687 75.1429 54.3173 75.1429 53.2709C75.1429 52.2244 75.9943 51.373 77.0408 51.373Z" fill="black"/>
<path d="M100.952 38.5753C100.952 37.9268 100.426 37.4011 99.7774 37.4011H98.7394C98.0908 37.4011 97.5652 37.9268 97.5652 38.5753C97.5652 39.2238 98.0908 39.7495 98.7394 39.7495H99.7774C100.426 39.7495 100.952 39.2238 100.952 38.5753Z" fill="black"/>
<path d="M84.8823 60.275H85.9488C86.5975 60.275 87.123 59.7493 87.123 59.1008C87.123 58.4523 86.5975 57.9266 85.9488 57.9266H84.8823C84.2337 57.9266 83.7081 58.4523 83.7081 59.1008C83.7081 59.7493 84.2338 60.275 84.8823 60.275Z" fill="black"/>
<path d="M74.9961 43.1749C75.6447 43.1749 76.1703 42.6491 76.1703 42.0006C76.1703 41.3522 75.6447 40.8264 74.9961 40.8264H73.9687C73.3201 40.8264 72.7945 41.3522 72.7945 42.0006C72.7945 42.6491 73.3201 43.1749 73.9687 43.1749H74.9961Z" fill="black"/>
<path d="M95.8515 22.631C96.5001 22.631 97.0257 22.1053 97.0257 21.4568C97.0257 20.8083 96.5001 20.2826 95.8515 20.2826H94.4217C93.7731 20.2826 93.2475 20.8083 93.2475 21.4568C93.2475 22.1053 93.7731 22.631 94.4217 22.631H95.8515Z" fill="black"/>
<path d="M103.663 54.1039C103.014 54.1039 102.489 54.6297 102.489 55.2782C102.489 55.9267 103.014 56.4524 103.663 56.4524H105.242C105.89 56.4524 106.416 55.9267 106.416 55.2782C106.416 54.6297 105.89 54.1039 105.242 54.1039H103.663Z" fill="black"/>
</g>
<path d="M44.7539 49.9492C44.3555 55.457 42.3164 59.793 38.6367 62.957C34.9805 66.1211 30.1523 67.7031 24.1523 67.7031C17.5898 67.7031 12.4219 65.5 8.64844 61.0938C4.89844 56.6641 3.02344 50.5938 3.02344 42.8828V39.7539C3.02344 34.832 3.89062 30.4961 5.625 26.7461C7.35938 22.9961 9.83203 20.125 13.043 18.1328C16.2773 16.1172 20.0273 15.1094 24.293 15.1094C30.1992 15.1094 34.957 16.6914 38.5664 19.8555C42.1758 23.0195 44.2617 27.4609 44.8242 33.1797H34.2773C34.0195 29.875 33.0938 27.4844 31.5 26.0078C29.9297 24.5078 27.5273 23.7578 24.293 23.7578C20.7773 23.7578 18.1406 25.0234 16.3828 27.5547C14.6484 30.0625 13.7578 33.9648 13.7109 39.2617V43.1289C13.7109 48.6602 14.543 52.7031 16.207 55.2578C17.8945 57.8125 20.543 59.0898 24.1523 59.0898C27.4102 59.0898 29.8359 58.3516 31.4297 56.875C33.0469 55.375 33.9727 53.0664 34.207 49.9492H44.7539Z" fill="black"/>
<path d="M158.484 54.3086L170.086 15.8125H181.828L164.004 67H153L135.246 15.8125H146.953L158.484 54.3086ZM197.895 67H187.348V15.8125H197.895V67ZM207.703 67V15.8125H223.453C227.953 15.8125 231.973 16.832 235.512 18.8711C239.074 20.8867 241.852 23.7695 243.844 27.5195C245.836 31.2461 246.832 35.4883 246.832 40.2461V42.6016C246.832 47.3594 245.848 51.5898 243.879 55.293C241.934 58.9961 239.18 61.8672 235.617 63.9062C232.055 65.9453 228.035 66.9766 223.559 67H207.703ZM218.25 24.3555V58.5273H223.348C227.473 58.5273 230.625 57.1797 232.805 54.4844C234.984 51.7891 236.098 47.9336 236.145 42.918V40.2109C236.145 35.0078 235.066 31.0703 232.91 28.3984C230.754 25.7031 227.602 24.3555 223.453 24.3555H218.25ZM273.621 49.1758H253.828V40.9844H273.621V49.1758ZM306.035 67H295.875V27.8359L283.746 31.5977V23.3359L304.945 15.7422H306.035V67ZM346.465 46.5391C343.816 49.1406 340.723 50.4414 337.184 50.4414C332.66 50.4414 329.039 48.8945 326.32 45.8008C323.602 42.6836 322.242 38.4883 322.242 33.2148C322.242 29.8633 322.969 26.793 324.422 24.0039C325.898 21.1914 327.949 19.0117 330.574 17.4648C333.199 15.8945 336.152 15.1094 339.434 15.1094C342.809 15.1094 345.809 15.9531 348.434 17.6406C351.059 19.3281 353.098 21.7539 354.551 24.918C356.004 28.082 356.742 31.7031 356.766 35.7812V39.543C356.766 48.0742 354.645 54.7773 350.402 59.6523C346.16 64.5273 340.148 67.1289 332.367 67.457L329.871 67.4922V59.0195L332.121 58.9844C340.957 58.5859 345.738 54.4375 346.465 46.5391ZM339.68 42.6719C341.32 42.6719 342.727 42.25 343.898 41.4062C345.094 40.5625 345.996 39.543 346.605 38.3477V34.1641C346.605 30.7188 345.949 28.0469 344.637 26.1484C343.324 24.25 341.566 23.3008 339.363 23.3008C337.324 23.3008 335.648 24.2383 334.336 26.1133C333.023 27.9648 332.367 30.2969 332.367 33.1094C332.367 35.8984 333 38.1953 334.266 40C335.555 41.7812 337.359 42.6719 339.68 42.6719Z" fill="black"/>
<defs>
<clipPath id="clip0">
<rect width="80" height="80" fill="white" transform="translate(52 2)"/>
</clipPath>
</defs>
</svg>
